<svg width="2000" height="360" viewBox="0 0 2000 360" fill="none" xmlns="http://www.w3.org/2000/svg">
<rect width="2000" height="360" rx="15" fill="#FEF9EC"/>
<path d="M449.326 238.328C444.899 238.328 440.472 237.83 436.045 236.834C431.618 235.838 427.91 234.51 424.922 232.85L424.092 213.924H433.887L437.373 225.877C441.357 228.423 445.729 229.695 450.488 229.695C454.03 229.695 456.797 228.921 458.789 227.371C460.781 225.822 461.777 223.774 461.777 221.229C461.777 218.572 460.781 216.303 458.789 214.422C456.797 212.54 452.757 210.438 446.67 208.113C438.59 205.014 432.946 201.749 429.736 198.318C426.527 194.887 424.922 190.571 424.922 185.369C424.922 181.053 426.25 177.234 428.906 173.914C431.562 170.594 435.215 167.993 439.863 166.111C444.622 164.23 450.101 163.289 456.299 163.289C459.73 163.289 463.161 163.621 466.592 164.285C470.133 164.839 473.066 165.669 475.391 166.775L477.217 185.369H467.588L463.77 173.748C462.663 173.084 461.335 172.586 459.785 172.254C458.236 171.811 456.686 171.59 455.137 171.59C451.595 171.59 448.717 172.42 446.504 174.08C444.401 175.63 443.35 177.677 443.35 180.223C443.35 182.99 444.567 185.314 447.002 187.195C449.548 189.077 454.03 191.401 460.449 194.168C467.754 197.267 472.9 200.477 475.889 203.797C478.988 207.117 480.537 211.212 480.537 216.082C480.537 222.723 477.604 228.09 471.738 232.186C465.983 236.281 458.512 238.328 449.326 238.328ZM545.449 224.217C543.678 228.644 540.69 232.13 536.484 234.676C532.389 237.221 527.907 238.494 523.037 238.494C515.622 238.494 509.535 236.336 504.775 232.02C500.127 227.703 497.803 221.173 497.803 212.43L498.301 174.578H486.68V169.764L512.412 148.514H517.227L516.895 170.428L516.562 210.271C516.562 215.252 517.725 218.904 520.049 221.229C522.373 223.442 525.638 224.549 529.844 224.549C532.057 224.549 534.16 224.106 536.152 223.221C538.255 222.335 540.081 221.173 541.631 219.734L545.449 224.217ZM508.262 174.578V164.783H540.801V174.578H508.262ZM575 238.328C570.02 238.328 565.703 237.277 562.051 235.174C558.509 233.071 555.798 230.525 553.916 227.537C552.035 224.549 551.094 221.671 551.094 218.904C551.094 215.031 552.311 211.821 554.746 209.275C557.181 206.619 561.055 204.461 566.367 202.801L592.266 194.832V188.025C592.266 185.59 591.491 183.322 589.941 181.219C588.392 179.116 586.344 177.4 583.799 176.072C581.253 174.744 578.486 174.08 575.498 174.08C573.395 174.08 571.901 174.578 571.016 175.574C570.241 176.46 569.743 178.286 569.521 181.053L568.857 190.018C563.877 191.124 559.727 191.014 556.406 189.686C553.197 188.247 551.592 185.923 551.592 182.713C551.592 180.721 552.588 178.673 554.58 176.57C556.572 174.467 559.062 172.475 562.051 170.594C565.15 168.712 568.359 167.107 571.68 165.779C575 164.451 578.044 163.621 580.811 163.289C590.107 163.289 597.467 165.503 602.891 169.93C608.424 174.357 611.247 180.278 611.357 187.693L610.859 212.264C610.859 215.031 610.915 217.355 611.025 219.236C611.247 221.007 611.579 222.446 612.021 223.553L622.812 225.545V231.854L613.018 236.004C611.136 236.779 609.421 237.332 607.871 237.664C606.322 238.107 604.883 238.328 603.555 238.328C599.57 238.328 596.803 236.225 595.254 232.02L592.764 224.715L595.918 225.379C592.487 229.474 589.001 232.684 585.459 235.008C581.917 237.221 578.431 238.328 575 238.328ZM582.139 225.047C584.02 225.047 585.791 224.66 587.451 223.885C589.222 223.11 590.827 221.893 592.266 220.232V203.631L578.486 206.619C575.83 207.173 573.893 208.113 572.676 209.441C571.569 210.77 571.016 212.54 571.016 214.754C571.016 217.41 572.067 219.79 574.17 221.893C576.383 223.995 579.04 225.047 582.139 225.047ZM628.457 237L627.959 229.861L638.252 227.205C638.363 226.762 638.473 225.822 638.584 224.383C638.695 222.944 638.805 221.062 638.916 218.738C639.027 216.303 639.082 213.481 639.082 210.271L639.248 197.654C639.248 194.223 639.137 191.069 638.916 188.191C638.695 185.203 638.307 182.436 637.754 179.891L627.129 177.566V170.76L653.857 163.621L657.51 166.277L656.846 179.559L657.344 179.725C660.553 173.527 663.818 169.321 667.139 167.107C670.459 164.894 673.779 163.787 677.1 163.787C679.977 163.787 682.412 164.562 684.404 166.111C686.507 167.661 687.559 170.04 687.559 173.25C687.559 176.46 686.452 178.95 684.238 180.721C682.025 182.492 679.368 183.377 676.27 183.377C673.835 183.377 671.621 182.934 669.629 182.049C667.637 181.163 665.534 179.669 663.32 177.566L667.305 178.064C665.534 179.393 663.818 181.108 662.158 183.211C660.498 185.203 659.004 187.583 657.676 190.35L657.842 204.129C657.952 207.781 658.063 211.212 658.174 214.422C658.285 217.521 658.395 220.232 658.506 222.557C658.617 224.77 658.727 226.32 658.838 227.205L673.281 229.529L672.783 237H628.457ZM691.377 237L690.879 229.695L701.67 227.205C701.891 226.209 702.057 224.272 702.168 221.395C702.279 218.517 702.389 215.031 702.5 210.936C702.611 206.73 702.666 202.358 702.666 197.82V176.902C702.666 173.029 702.611 169.1 702.5 165.115C702.5 161.02 702.445 157.146 702.334 153.494C702.334 149.842 702.279 146.632 702.168 143.865C702.057 140.988 701.947 138.774 701.836 137.225L689.551 135.564L689.219 129.09L718.271 121.453L722.422 124.109C722.311 128.758 722.145 133.351 721.924 137.889C721.813 142.316 721.702 147.296 721.592 152.83C721.592 158.364 721.592 165.115 721.592 173.084L721.426 198.318C721.426 205.623 721.481 212.042 721.592 217.576C721.813 222.999 722.035 226.209 722.256 227.205L733.047 229.695L732.715 237H691.377ZM738.857 237L738.359 229.695L749.482 227.205C749.593 226.762 749.704 225.822 749.814 224.383C749.925 222.944 750.036 221.062 750.146 218.738C750.257 216.303 750.312 213.481 750.312 210.271L750.479 197.654C750.479 194.223 750.368 191.069 750.146 188.191C749.925 185.203 749.538 182.436 748.984 179.891L737.861 177.566V170.76L766.25 163.621L770.068 166.443C769.736 169.874 769.46 173.361 769.238 176.902C769.128 180.333 769.072 184.318 769.072 188.855V209.773C769.072 213.868 769.128 217.576 769.238 220.896C769.46 224.217 769.736 226.32 770.068 227.205L781.191 229.695L780.693 237H738.857ZM759.941 148.182C756.068 148.182 752.969 147.02 750.645 144.695C748.32 142.26 747.158 139.383 747.158 136.062C747.158 132.853 748.32 130.031 750.645 127.596C752.969 125.161 756.068 123.943 759.941 123.943C763.815 123.943 766.859 125.161 769.072 127.596C771.286 130.031 772.393 132.853 772.393 136.062C772.393 139.383 771.286 142.26 769.072 144.695C766.859 147.02 763.815 148.182 759.941 148.182ZM822.529 274.852C811.351 274.852 802.552 273.191 796.133 269.871C789.824 266.661 786.67 262.29 786.67 256.756C786.67 252.993 788.441 249.507 791.982 246.297C795.524 243.198 800.671 240.431 807.422 237.996L814.395 238.992C811.406 240.984 809.027 243.253 807.256 245.799C805.596 248.344 804.766 251.056 804.766 253.934C804.766 257.807 806.426 260.851 809.746 263.064C813.066 265.278 817.77 266.385 823.857 266.385C830.277 266.385 835.534 265.001 839.629 262.234C843.835 259.467 845.938 255.981 845.938 251.775C845.938 248.676 844.775 246.352 842.451 244.803C840.238 243.253 836.364 242.257 830.83 241.814L811.24 240.154L809.414 239.324C804.323 239.324 800.228 238.273 797.129 236.17C794.141 234.067 792.646 231.3 792.646 227.869C792.646 224.549 794.307 221.395 797.627 218.406C800.947 215.418 805.485 212.983 811.24 211.102L813.73 214.09C812.181 215.086 810.964 216.082 810.078 217.078C809.303 218.074 808.916 219.07 808.916 220.066C808.916 221.395 809.414 222.501 810.41 223.387C811.406 224.161 812.845 224.66 814.727 224.881L838.633 227.205C846.823 227.98 852.91 230.083 856.895 233.514C860.99 236.945 863.037 241.538 863.037 247.293C863.037 252.384 861.266 257.033 857.725 261.238C854.183 265.444 849.368 268.764 843.281 271.199C837.194 273.634 830.277 274.852 822.529 274.852ZM823.525 217.078C817.106 217.078 811.462 215.971 806.592 213.758C801.722 211.544 797.904 208.501 795.137 204.627C792.48 200.643 791.152 196.105 791.152 191.014C791.152 185.59 792.591 180.831 795.469 176.736C798.346 172.531 802.22 169.21 807.09 166.775C812.07 164.34 817.66 163.123 823.857 163.123C829.945 163.123 835.368 164.34 840.127 166.775C844.886 169.21 848.649 172.475 851.416 176.57C854.183 180.665 855.566 185.314 855.566 190.516C855.566 195.607 854.183 200.2 851.416 204.295C848.649 208.279 844.831 211.434 839.961 213.758C835.202 215.971 829.723 217.078 823.525 217.078ZM824.688 208.445C828.451 208.445 831.439 206.896 833.652 203.797C835.866 200.698 836.973 196.492 836.973 191.18C836.973 185.314 835.755 180.61 833.32 177.068C830.885 173.527 827.676 171.756 823.691 171.756C819.928 171.756 816.885 173.416 814.561 176.736C812.236 180.057 811.074 184.428 811.074 189.852C811.074 195.385 812.292 199.868 814.727 203.299C817.272 206.73 820.592 208.445 824.688 208.445ZM865.029 177.4L843.447 175.408L837.305 168.104L865.029 164.949V177.4ZM871.338 237L870.84 229.861L881.133 227.205C881.354 226.209 881.52 224.272 881.631 221.395C881.742 218.517 881.852 215.031 881.963 210.936C882.074 206.73 882.129 202.358 882.129 197.82V177.068C882.129 173.305 882.074 169.432 881.963 165.447C881.963 161.463 881.908 157.645 881.797 153.992C881.797 150.229 881.742 146.909 881.631 144.031C881.52 141.043 881.41 138.774 881.299 137.225L869.014 135.564L868.682 129.09L897.402 121.453L901.553 124.109C901.442 127.54 901.276 130.916 901.055 134.236C900.944 137.446 900.833 140.988 900.723 144.861C900.723 148.735 900.667 153.162 900.557 158.143C900.446 163.012 900.335 168.823 900.225 175.574L900.723 175.74C904.264 171.535 908.027 168.436 912.012 166.443C915.996 164.34 920.257 163.289 924.795 163.289C929.333 163.289 933.428 164.451 937.08 166.775C940.843 168.989 943.831 172.309 946.045 176.736C948.258 181.163 949.365 186.587 949.365 193.006V210.271C949.365 214.035 949.421 217.576 949.531 220.896C949.753 224.106 949.974 226.209 950.195 227.205L960.488 229.861L959.99 237H921.143L920.645 229.861L930.107 227.205C930.329 226.32 930.495 225.047 930.605 223.387C930.716 221.727 930.771 219.79 930.771 217.576C930.882 215.363 930.938 213.094 930.938 210.77V195.496C930.938 191.18 930.218 187.693 928.779 185.037C927.451 182.27 925.68 180.278 923.467 179.061C921.253 177.732 918.818 177.068 916.162 177.068C913.174 177.068 910.296 177.788 907.529 179.227C904.873 180.555 902.549 182.547 900.557 185.203V209.773C900.557 214.201 900.612 218.019 900.723 221.229C900.944 224.327 901.221 226.32 901.553 227.205L911.68 229.861L911.182 237H871.338ZM1023.41 224.217C1021.64 228.644 1018.65 232.13 1014.44 234.676C1010.35 237.221 1005.87 238.494 1001 238.494C993.581 238.494 987.493 236.336 982.734 232.02C978.086 227.703 975.762 221.173 975.762 212.43L976.26 174.578H964.639V169.764L990.371 148.514H995.186L994.854 170.428L994.521 210.271C994.521 215.252 995.684 218.904 998.008 221.229C1000.33 223.442 1003.6 224.549 1007.8 224.549C1010.02 224.549 1012.12 224.106 1014.11 223.221C1016.21 222.335 1018.04 221.173 1019.59 219.734L1023.41 224.217ZM986.221 174.578V164.783H1018.76V174.578H986.221ZM1143.6 226.707C1141.5 230.359 1138.62 233.237 1134.97 235.34C1131.32 237.332 1127.5 238.328 1123.52 238.328C1116.76 238.328 1111.23 236.281 1106.91 232.186C1102.6 228.09 1100.44 221.948 1100.44 213.758L1100.94 174.08H1089.32V170.594L1110.73 151.17H1113.89L1113.55 170.262L1113.39 211.102C1113.39 216.857 1114.61 221.118 1117.04 223.885C1119.59 226.652 1123.13 228.035 1127.67 228.035C1130.21 228.035 1132.54 227.537 1134.64 226.541C1136.85 225.545 1138.84 224.217 1140.62 222.557L1143.6 226.707ZM1107.58 174.08V165.779H1138.62V174.08H1107.58ZM1184.11 238.328C1176.92 238.328 1170.61 236.779 1165.19 233.68C1159.87 230.581 1155.72 226.264 1152.73 220.73C1149.75 215.086 1148.25 208.667 1148.25 201.473C1148.25 193.947 1149.91 187.417 1153.23 181.883C1156.55 176.349 1160.98 172.033 1166.51 168.934C1172.05 165.835 1178.13 164.285 1184.78 164.285C1191.64 164.285 1197.61 165.835 1202.71 168.934C1207.91 171.922 1211.89 176.183 1214.66 181.717C1217.54 187.14 1218.97 193.504 1218.97 200.809C1218.97 207.781 1217.43 214.09 1214.33 219.734C1211.23 225.379 1207.02 229.917 1201.71 233.348C1196.51 236.668 1190.64 238.328 1184.11 238.328ZM1185.77 230.525C1189.53 230.525 1192.8 229.419 1195.57 227.205C1198.33 224.881 1200.49 221.727 1202.04 217.742C1203.59 213.647 1204.37 208.999 1204.37 203.797C1204.37 194.279 1202.37 186.587 1198.39 180.721C1194.51 174.744 1189.37 171.756 1182.95 171.756C1176.97 171.756 1172.16 174.246 1168.51 179.227C1164.96 184.207 1163.19 190.792 1163.19 198.982C1163.19 205.18 1164.13 210.659 1166.02 215.418C1168.01 220.177 1170.72 223.885 1174.15 226.541C1177.58 229.197 1181.46 230.525 1185.77 230.525ZM1296.84 237L1296.34 229.363L1306.13 226.873C1306.35 226.43 1306.52 225.213 1306.63 223.221C1306.74 221.229 1306.85 218.517 1306.96 215.086C1307.07 211.544 1307.13 207.339 1307.13 202.469L1307.29 173.416C1307.29 168.768 1307.24 164.728 1307.13 161.297C1307.02 157.866 1306.91 155.154 1306.8 153.162C1306.69 151.059 1306.52 149.842 1306.3 149.51L1295.84 147.186L1296.34 139.549H1336.18C1348.91 139.549 1358.54 141.984 1365.07 146.854C1371.6 151.723 1374.86 158.751 1374.86 167.938C1374.86 174.025 1373.26 179.448 1370.05 184.207C1366.84 188.966 1362.3 192.729 1356.44 195.496C1350.68 198.152 1343.87 199.48 1336.02 199.48C1333.91 199.48 1331.87 199.37 1329.87 199.148C1327.99 198.927 1326.17 198.65 1324.39 198.318V187.527C1326.05 188.191 1327.83 188.745 1329.71 189.188C1331.59 189.52 1333.64 189.686 1335.85 189.686C1341.6 189.686 1346.03 188.025 1349.13 184.705C1352.34 181.385 1353.95 176.515 1353.95 170.096C1353.95 162.57 1352.01 157.036 1348.13 153.494C1344.37 149.952 1339.34 148.182 1333.03 148.182H1327.05C1327.05 148.956 1327 150.451 1326.88 152.664C1326.88 154.878 1326.83 157.755 1326.72 161.297C1326.72 164.728 1326.72 168.768 1326.72 173.416L1326.88 202.469C1326.88 207.339 1326.94 211.544 1327.05 215.086C1327.16 218.517 1327.27 221.229 1327.38 223.221C1327.6 225.102 1327.77 226.264 1327.88 226.707L1341.33 229.031L1340.83 237H1296.84ZM1386.82 139.549H1430.81C1448.63 139.549 1462.52 143.755 1472.48 152.166C1482.44 160.467 1487.42 172.088 1487.42 187.029C1487.42 196.769 1485.04 205.402 1480.28 212.928C1475.63 220.454 1469.16 226.375 1460.86 230.691C1452.67 234.897 1443.26 237 1432.64 237H1386.82L1386.32 229.363L1396.78 226.873C1397.11 225.988 1397.39 223.165 1397.61 218.406C1397.83 213.647 1397.94 208.058 1397.94 201.639V175.076C1397.94 168.214 1397.83 162.459 1397.61 157.811C1397.39 153.051 1397.11 150.34 1396.78 149.676L1386.32 147.186L1386.82 139.549ZM1417.86 149.842C1417.86 150.727 1417.81 152.166 1417.7 154.158C1417.7 156.15 1417.64 158.862 1417.53 162.293C1417.53 165.613 1417.53 169.874 1417.53 175.076V201.639C1417.53 204.627 1417.53 207.671 1417.53 210.77C1417.64 213.868 1417.75 216.691 1417.86 219.236C1418.08 221.782 1418.25 223.829 1418.36 225.379C1421.24 225.822 1423.95 226.209 1426.49 226.541C1429.15 226.762 1431.64 226.873 1433.96 226.873C1444.15 226.873 1451.84 224.051 1457.04 218.406C1462.35 212.651 1465.01 203.908 1465.01 192.176C1465.01 184.539 1464.12 178.009 1462.35 172.586C1460.58 167.163 1458.09 162.68 1454.88 159.139C1451.67 155.597 1447.85 152.996 1443.43 151.336C1439.11 149.676 1434.35 148.846 1429.15 148.846C1427.38 148.846 1425.55 148.956 1423.67 149.178C1421.79 149.288 1419.85 149.51 1417.86 149.842ZM1503.36 237L1502.86 229.363L1512.66 226.873C1512.77 226.43 1512.88 225.158 1512.99 223.055C1513.1 220.841 1513.21 217.964 1513.32 214.422C1513.43 210.77 1513.49 206.619 1513.49 201.971L1513.65 173.914C1513.65 169.376 1513.6 165.392 1513.49 161.961C1513.38 158.419 1513.26 155.597 1513.15 153.494C1513.04 151.391 1512.93 150.174 1512.82 149.842L1502.36 147.186L1502.86 139.549H1553.33C1555.43 139.549 1557.81 139.549 1560.47 139.549C1563.24 139.438 1565.95 139.327 1568.6 139.217C1571.37 138.995 1573.75 138.829 1575.74 138.719L1579.89 162.459L1570.93 163.621L1564.79 149.344C1563.68 149.122 1562.52 148.956 1561.3 148.846C1560.19 148.735 1559.03 148.68 1557.81 148.68H1543.2C1541.43 148.68 1539.61 148.735 1537.72 148.846C1535.84 148.956 1534.29 149.122 1533.08 149.344C1533.08 149.786 1533.02 150.506 1532.91 151.502C1532.91 152.387 1532.91 153.605 1532.91 155.154C1532.91 156.704 1532.91 158.696 1532.91 161.131C1532.91 163.566 1532.91 166.554 1532.91 170.096L1533.08 207.283C1533.08 210.493 1533.13 213.536 1533.24 216.414C1533.35 219.181 1533.46 221.505 1533.57 223.387C1533.68 225.268 1533.8 226.43 1533.91 226.873L1547.35 229.031L1546.86 237H1503.36ZM1558.81 205.125L1556.98 193.338C1555.88 193.117 1554.55 192.951 1553 192.84C1551.56 192.729 1549.9 192.674 1548.02 192.674H1537.06C1535.29 192.674 1533.63 192.729 1532.08 192.84C1530.64 192.951 1529.2 193.061 1527.76 193.172V182.381C1528.98 182.492 1530.36 182.602 1531.91 182.713C1533.57 182.824 1535.29 182.879 1537.06 182.879H1548.02C1550.23 182.879 1552.11 182.824 1553.66 182.713C1555.21 182.602 1556.32 182.492 1556.98 182.381L1558.81 171.258H1567.61V205.125H1558.81Z" fill="url(#paint0_linear_11_2)"/>
<defs>
<linearGradient id="paint0_linear_11_2" x1="417" y1="179.5" x2="1583" y2="179.5" gradientUnits="userSpaceOnUse">
<stop stop-color="#262626"/>
<stop offset="0.5" stop-color="#4D4D4D"/>
<stop offset="1" stop-color="#D2290B"/>
</linearGradient>
</defs>
</svg>
